<?xml version="1.0" encoding="UTF-8"?>
<svg width="213px" height="213px" viewBox="0 0 213 213" version="1.1" xmlns="http://www.w3.org/2000/svg" xmlns:xlink="http://www.w3.org/1999/xlink">
    <!-- Generator: Sketch 44.1 (41455) - http://www.bohemiancoding.com/sketch -->
    <title>Slice</title>
    <desc>Created with Sketch.</desc>
    <defs></defs>
    <g id="Page-1" stroke="none" stroke-width="1" fill="none" fill-rule="evenodd">
        <g transform="translate(24.111536, 40.014889)" fill="#F26E6A">
            <path d="M47.9673965,66.1450301 C47.9673965,86.4514867 65.1303398,103.175155 86.3070507,103.175155 C100.993929,103.175155 116.29831,94.0656603 116.29831,85.4047622 C116.29831,79.8840377 111.660986,75.4040565 105.940005,75.4040565 C103.621343,75.4040565 101.920183,76.0021849 99.6015211,77.6410565 C96.8227589,79.5849735 94.9641967,80.924781 94.346694,81.2238452 C92.1854345,82.5696339 89.4006183,83.1677622 86.4644534,83.1677622 C76.7236507,83.1677622 68.8353561,75.7031207 68.8353561,66.2945621 C68.8353561,57.0355356 76.7236507,49.4213621 86.7732048,49.4213621 C91.1017778,49.4213621 94.0379427,50.6176187 98.5239183,54.0508753 C101.302681,56.1383432 102.537686,56.5869394 105.013751,56.5869394 C110.886081,56.5869394 115.529459,52.2564903 115.529459,46.7357659 C115.529459,42.5548489 113.670897,39.8632714 108.107318,36.1309506 C101.768835,31.9500337 93.5717886,29.4139695 85.8469507,29.4139695 C65.1303398,29.4139695 47.9673965,46.1376375 47.9673965,66.1450301" id="Fill-1"></path>
            <g id="Group-5" transform="translate(107.700381, 0.000000)">
                <path d="M55.8515074,64.4039569 C55.8515074,89.760224 45.5228577,110.915488 26.25398,125.021001 C19.6257759,129.967246 14.8447761,132.221003 11.3012826,132.221003 C5.28881327,132.221003 0.507813538,127.268748 0.507813538,120.964239 C0.507813538,116.913487 2.8198374,114.064738 8.21657194,110.915488 C24.0928716,102.062731 33.9627384,85.1084699 33.9627384,66.5014533 C33.9627384,47.7501962 23.9419562,30.3451833 8.52443935,21.6426768 C2.3610546,18.3431768 0.356898142,15.6446786 0.356898142,10.842674 C0.356898142,4.98891617 5.28881327,0.186911568 10.9934152,0.186911568 C14.0781259,0.186911568 16.6980172,1.08841431 21.3220649,3.93716297 C27.0266669,7.54317394 33.0391362,12.489419 37.3553165,17.1411731 C48.142749,29.1431796 55.8515074,48.651699 55.8515074,64.4039569" id="Fill-3"></path>
            </g>
            <g id="Group-8">
                <path d="M0.366067836,64.4039569 C0.366067836,89.760224 10.6054576,110.915488 29.7078141,125.021001 C36.2787375,129.967246 41.01842,132.221003 44.5312907,132.221003 C50.4918004,132.221003 55.2314829,127.268748 55.2314829,120.964239 C55.2314829,116.913487 52.9394395,114.064738 47.5893434,110.915488 C31.8502463,102.062731 22.0656746,85.1084699 22.0656746,66.5014533 C22.0656746,47.7501962 31.9998575,30.3451833 47.2841365,21.6426768 C53.3942575,18.3431768 55.3810941,15.6446786 55.3810941,10.842674 C55.3810941,4.98891617 50.4918004,0.186911568 44.8364975,0.186911568 C41.7784448,0.186911568 39.1811946,1.08841431 34.5971078,3.93716297 C28.9418048,7.54317394 22.9812951,12.489419 18.7024151,17.1411731 C8.00820734,29.1431796 0.366067836,48.651699 0.366067836,64.4039569" id="Fill-6"></path>
            </g>
        </g>
    </g>
</svg>