<?xml version="1.0" encoding="UTF-8"?>
<svg width="16px" height="16px" viewBox="0 0 16 16" version="1.1" xmlns="http://www.w3.org/2000/svg" xmlns:xlink="http://www.w3.org/1999/xlink">
    <!-- Generator: Sketch 44.1 (41455) - http://www.bohemiancoding.com/sketch -->
    <title>Slice</title>
    <desc>Created with Sketch.</desc>
    <defs></defs>
    <g id="Page-1" stroke="none" stroke-width="1" fill="none" fill-rule="evenodd">
        <g transform="translate(0.000000, 1.500000)">
            <path d="M4.67618477,6.44826288 C4.67618477,8.427873 6.34934404,10.0582088 8.41379241,10.0582088 C9.84556821,10.0582088 11.3375423,9.17015391 11.3375423,8.32583124 C11.3375423,7.78763385 10.8854647,7.35089513 10.327745,7.35089513 C10.1017062,7.35089513 9.93586569,7.4092047 9.70982689,7.56897294 C9.43893444,7.75847907 9.25774929,7.88909252 9.19755097,7.9182473 C8.98685684,8.04944385 8.71537421,8.10775343 8.42913708,8.10775343 C7.47953805,8.10775343 6.71053398,7.38004991 6.71053398,6.46284028 C6.71053398,5.56020803 7.47953805,4.81792713 8.45923624,4.81792713 C8.88121468,4.81792713 9.16745181,4.93454628 9.60477492,5.26924325 C9.87566737,5.47274367 9.99606402,5.51647585 10.2374475,5.51647585 C10.8099217,5.51647585 11.2625895,5.09431452 11.2625895,4.55611713 C11.2625895,4.14853319 11.0814044,3.8861401 10.5390293,3.52228834 C9.9211112,3.1147044 9.12200797,2.8674718 8.36893876,2.8674718 C6.34934404,2.8674718 4.67618477,4.49780755 4.67618477,6.44826288" id="Fill-1" fill="#FF6661"></path>
            <g id="Group-5" transform="translate(10.499358, 0.000000)" fill="#F26E6A">
                <path d="M5.44478099,6.27853135 C5.44478099,8.75043099 4.43787468,10.8127886 2.55941474,12.187889 C1.91325277,12.6700822 1.44716873,12.8897936 1.10172512,12.8897936 C0.515589127,12.8897936 0.0495050828,12.4070145 0.0495050828,11.7924085 C0.0495050828,11.3975138 0.274896736,11.1197986 0.801006755,10.8127886 C2.34873534,9.94976225 3.31091641,8.29694668 3.31091641,6.48300942 C3.31091641,4.65501063 2.33402309,2.95825278 0.831019743,2.10987386 C0.230171499,1.78821638 0.0347928339,1.5251486 0.0347928339,1.05701686 C0.0347928339,0.486353139 0.515589127,0.0182213982 1.07171213,0.0182213982 C1.3724305,0.0182213982 1.62783514,0.106105955 2.07861845,0.383821156 C2.63474146,0.735359384 3.22087745,1.21755265 3.64164777,1.67103697 C4.69327932,2.84107337 5.44478099,4.74289519 5.44478099,6.27853135" id="Fill-3"></path>
            </g>
            <g id="Group-8" fill="#F26E6A">
                <path d="M0.0356867574,6.27853135 C0.0356867574,8.75043099 1.03389141,10.8127886 2.89611774,12.187889 C3.5366956,12.6700822 3.99875176,12.8897936 4.34121004,12.8897936 C4.92228067,12.8897936 5.38433682,12.4070145 5.38433682,11.7924085 C5.38433682,11.3975138 5.160893,11.1197986 4.63932961,10.8127886 C3.10497646,9.94976225 2.15111053,8.29694668 2.15111053,6.48300942 C2.15111053,4.65501063 3.11956157,2.95825278 4.60957599,2.10987386 C5.20523172,1.78821638 5.39892193,1.5251486 5.39892193,1.05701686 C5.39892193,0.486353139 4.92228067,0.0182213982 4.37096366,0.0182213982 C4.07284409,0.0182213982 3.81964665,0.106105955 3.37275901,0.383821156 C2.821442,0.735359384 2.24037138,1.21755265 1.82323735,1.67103697 C0.780693971,2.84107337 0.0356867574,4.74289519 0.0356867574,6.27853135" id="Fill-6"></path>
            </g>
        </g>
    </g>
</svg>